<!-- logo-type -->

<svg
    id="logo-type"
    width="172"
    height="68"
    viewBox="0 0 172 68"
    fill="none"
    xmlns="http://www.w3.org/2000/svg"
    >
        <path
          fill-rule="evenodd"
          clip-rule="evenodd"
          d="M20.5008 18.8C18.2008 22.3 17.4008 26.5 17.4008 29.4H14.8008C14.8008 26.1 15.7008 21.3 18.4008 17.3C21.1008 13.2 25.7008 10 32.9008 10C40.1008 10 44.7008 13.2 47.4008 17.3C50.1008 21.3 51.0008 26.1 51.1008 29.4H48.5008C48.5008 26.5 47.7008 22.3 45.3008 18.8C43.0008 15.4 39.2008 12.6 32.9008 12.6C26.6008 12.7 22.8008 15.4 20.5008 18.8Z"
          fill="url(#paint0_linear_3531_44271)"
        />
        <path
          fill-rule="evenodd"
          clip-rule="evenodd"
          d="M1.3 21.5C2 21.5 2.6 22.1 2.6 22.8V48.8C2.6 49.5 2 50.1 1.3 50.1C0.6 50.1 0 49.5 0 48.8V22.8C0 22.1 0.6 21.5 1.3 21.5Z"
          fill="url(#paint1_linear_3531_44271)"
        />
        <path
          fill-rule="evenodd"
          clip-rule="evenodd"
          d="M32.9992 21.5C33.6992 21.5 34.2992 22.1 34.2992 22.8V48.8C34.2992 49.5 33.6992 50.1 32.9992 50.1C32.2992 50.1 31.6992 49.5 31.6992 48.8V22.8C31.6992 22.1 32.2992 21.5 32.9992 21.5Z"
          fill="url(#paint2_linear_3531_44271)"
        />
        <path
          fill-rule="evenodd"
          clip-rule="evenodd"
          d="M64.7004 21.5C65.4004 21.5 66.0004 22.1 66.0004 22.8V48.8C66.0004 49.5 65.4004 50.1 64.7004 50.1C64.0004 50.1 63.4004 49.5 63.4004 48.8V22.8C63.4004 22.1 64.0004 21.5 64.7004 21.5Z"
          fill="url(#paint3_linear_3531_44271)"
        />
        <path
          fill-rule="evenodd"
          clip-rule="evenodd"
          d="M6.10078 26.8C6.80078 26.8 7.40078 27.4 7.40078 28.1V45C7.40078 45.7001 6.80078 46.3 6.10078 46.3C5.40078 46.3 4.80078 45.7001 4.80078 45V28.2001C4.80078 27.4001 5.40078 26.8 6.10078 26.8Z"
          fill="url(#paint4_linear_3531_44271)"
        />
        <path
          fill-rule="evenodd"
          clip-rule="evenodd"
          d="M27.1008 25.5C27.8008 25.5 28.4008 26.1 28.4008 26.8V43.6C28.4008 44.3 27.8008 44.9 27.1008 44.9C26.4008 44.9 25.8008 44.3 25.8008 43.6V26.8C25.8008 26.1 26.3008 25.5 27.1008 25.5Z"
          fill="url(#paint5_linear_3531_44271)"
        />
        <path
          fill-rule="evenodd"
          clip-rule="evenodd"
          d="M38.7004 25.5C39.4004 25.5 40.0004 26.1 40.0004 26.8V43.6C40.0004 44.3 39.4004 44.9 38.7004 44.9C38.0004 44.9 37.4004 44.3 37.4004 43.6V26.8C37.4004 26.1 38.0004 25.5 38.7004 25.5Z"
          fill="url(#paint6_linear_3531_44271)"
        />
        <path
          fill-rule="evenodd"
          clip-rule="evenodd"
          d="M59.8996 25.5C60.5996 25.5 61.1996 26.1 61.1996 26.8V43.6C61.1996 44.3 60.5996 44.9 59.8996 44.9C59.1996 44.9 58.5996 44.3 58.5996 43.6V26.8C58.5996 26.1 59.1996 25.5 59.8996 25.5Z"
          fill="url(#paint7_linear_3531_44271)"
        />
        <path
          fill-rule="evenodd"
          clip-rule="evenodd"
          d="M10.8996 29.8999C11.5996 29.8999 12.1996 30.4999 12.1996 31.1999V40.3999C12.1996 41.0999 11.5996 41.6999 10.8996 41.6999C10.1996 41.6999 9.59961 41.0999 9.59961 40.3999V31.1999C9.59961 30.4999 10.1996 29.8999 10.8996 29.8999Z"
          fill="url(#paint8_linear_3531_44271)"
        />
        <path
          fill-rule="evenodd"
          clip-rule="evenodd"
          d="M21.7004 29.8999C22.4004 29.8999 23.0004 30.4999 23.0004 31.1999V40.3999C23.0004 41.0999 22.4004 41.6999 21.7004 41.6999C21.0004 41.6999 20.4004 41.0999 20.4004 40.3999V31.1999C20.4004 30.4999 21.0004 29.8999 21.7004 29.8999Z"
          fill="url(#paint9_linear_3531_44271)"
        />
        <path
          fill-rule="evenodd"
          clip-rule="evenodd"
          d="M44.1008 29.8999C44.8008 29.8999 45.4008 30.4999 45.4008 31.1999V40.3999C45.4008 41.0999 44.8008 41.6999 44.1008 41.6999C43.4008 41.6999 42.8008 41.0999 42.8008 40.3999V31.1999C42.8008 30.4999 43.4008 29.8999 44.1008 29.8999Z"
          fill="url(#paint10_linear_3531_44271)"
        />
        <path
          fill-rule="evenodd"
          clip-rule="evenodd"
          d="M55.1008 29.8999C55.8008 29.8999 56.4008 30.4999 56.4008 31.1999V40.3999C56.4008 41.0999 55.8008 41.6999 55.1008 41.6999C54.4008 41.6999 53.8008 41.0999 53.8008 40.3999V31.1999C53.8008 30.4999 54.3008 29.8999 55.1008 29.8999Z"
          fill="url(#paint11_linear_3531_44271)"
        />
        <path
          fill-rule="evenodd"
          clip-rule="evenodd"
          d="M16.1008 32.2C16.8008 32.2 17.4008 32.8 17.4008 33.5V38.0999C17.4008 38.7999 16.8008 39.4 16.1008 39.4C15.4008 39.4 14.8008 38.7999 14.8008 38.0999V33.5C14.8008 32.8 15.4008 32.2 16.1008 32.2Z"
          fill="url(#paint12_linear_3531_44271)"
        />
        <path
          fill-rule="evenodd"
          clip-rule="evenodd"
          d="M49.7004 32.2C50.4004 32.2 51.0004 32.8 51.0004 33.5V38.0999C51.0004 38.7999 50.4004 39.4 49.7004 39.4C49.0004 39.4 48.4004 38.7999 48.4004 38.0999V33.5C48.4004 32.8 49.0004 32.2 49.7004 32.2Z"
          fill="url(#paint13_linear_3531_44271)"
        />
        <path
          fill-rule="evenodd"
          clip-rule="evenodd"
          d="M19.4996 52.1001C16.5996 48.8001 15.0996 44.9001 15.0996 42.1001H17.6996C17.6996 44.1001 18.7996 47.4001 21.3996 50.3001C23.8996 53.1001 27.6996 55.4001 32.8996 55.4001C38.0996 55.4001 41.8996 53.2001 44.3996 50.4001C46.8996 47.6001 48.0996 44.3001 48.0996 42.1001H50.6996C50.6996 45.1001 49.1996 49.0001 46.2996 52.3001C43.3996 55.6001 38.8996 58.1001 32.8996 58.1001C26.8996 58.0001 22.3996 55.4001 19.4996 52.1001Z"
          fill="url(#paint14_linear_3531_44271)"
        />
        <path
          d="M98.7 43C97.9 43.6 96.7 44 95.4 44C93.1 44 91.5 43.1 90.3 41.2001L87.8 37.2001C87.3 36.3001 86.7 36 86 36V43.7001H82V24.3H88.1C93.4 24.3 96 26.5001 96 30.2001C96 33.3001 93.8 35.2001 90.7 35.7001C91.3 35.9001 91.8 36.4 92.3 37.1L93.6 39C94.2 40 94.9 40.4001 96 40.4001C96.6 40.4001 97.2 40.2001 97.8 39.9001L98.7 43ZM86 27.6V32.8H88C90.7 32.8 91.9 32.0001 91.9 30.2001C91.9 28.4001 90.5 27.6 88 27.6H86Z"
          fill="url(#paint15_linear_3531_44271)"
        />
        <path
          d="M100.801 24.3H104.901V43.7001H100.801V24.3Z"
          fill="url(#paint16_linear_3531_44271)"
        />
        <path
          d="M123.801 27.9H118.001V43.7001H113.901V27.9H107.801V24.3H124.301L123.801 27.9Z"
          fill="url(#paint17_linear_3531_44271)"
        />
        <path
          d="M127.7 24.3H131.2L138.1 38.6L144.9 24.3H148.4L148.9 43.7001H145L144.6 32.7001L139.4 43.7001H136.4L131.2 32.8L130.8 43.7001H127L127.7 24.3Z"
          fill="url(#paint18_linear_3531_44271)"
        />
        <path
          d="M153 34.3C153 28.1 157 24 162.9 24C168.4 24 171.9 27.9 171.9 33.6C171.9 39.7 168.1 43.9 162.4 43.9C156.6 44 153 40.4 153 34.3ZM167.9 33.7C167.9 30.2 166 27.7 162.8 27.7C159.3 27.7 157.1 30.6 157.1 34.3C157.1 38 159.1 40.3 162.4 40.3C165.9 40.3 167.9 37.6 167.9 33.7Z"
          fill="url(#paint19_linear_3531_44271)"
        />
        <defs>
          <linearGradient
            id="paint0_linear_3531_44271"
            x1="0.479082"
            y1="19.7148"
            x2="170.702"
            y2="19.7148"
            gradientUnits="userSpaceOnUse"
          >
            <stop stop-color="#ED265D" />
            <stop offset="1" stop-color="#4353FF" />
          </linearGradient>
          <linearGradient
            id="paint1_linear_3531_44271"
            x1="0.4783"
            y1="35.8167"
            x2="170.702"
            y2="35.8167"
            gradientUnits="userSpaceOnUse"
          >
            <stop stop-color="#ED265D" />
            <stop offset="1" stop-color="#4353FF" />
          </linearGradient>
          <linearGradient
            id="paint2_linear_3531_44271"
            x1="0.477538"
            y1="35.8167"
            x2="170.701"
            y2="35.8167"
            gradientUnits="userSpaceOnUse"
          >
            <stop stop-color="#ED265D" />
            <stop offset="1" stop-color="#4353FF" />
          </linearGradient>
          <linearGradient
            id="paint3_linear_3531_44271"
            x1="0.478728"
            y1="35.8167"
            x2="170.702"
            y2="35.8167"
            gradientUnits="userSpaceOnUse"
          >
            <stop stop-color="#ED265D" />
            <stop offset="1" stop-color="#4353FF" />
          </linearGradient>
          <linearGradient
            id="paint4_linear_3531_44271"
            x1="0.479082"
            y1="36.5817"
            x2="170.702"
            y2="36.5817"
            gradientUnits="userSpaceOnUse"
          >
            <stop stop-color="#ED265D" />
            <stop offset="1" stop-color="#4353FF" />
          </linearGradient>
          <linearGradient
            id="paint5_linear_3531_44271"
            x1="0.479077"
            y1="35.2432"
            x2="170.702"
            y2="35.2432"
            gradientUnits="userSpaceOnUse"
          >
            <stop stop-color="#ED265D" />
            <stop offset="1" stop-color="#4353FF" />
          </linearGradient>
          <linearGradient
            id="paint6_linear_3531_44271"
            x1="0.478713"
            y1="35.2432"
            x2="170.702"
            y2="35.2432"
            gradientUnits="userSpaceOnUse"
          >
            <stop stop-color="#ED265D" />
            <stop offset="1" stop-color="#4353FF" />
          </linearGradient>
          <linearGradient
            id="paint7_linear_3531_44271"
            x1="0.477859"
            y1="35.2432"
            x2="170.701"
            y2="35.2432"
            gradientUnits="userSpaceOnUse"
          >
            <stop stop-color="#ED265D" />
            <stop offset="1" stop-color="#4353FF" />
          </linearGradient>
          <linearGradient
            id="paint8_linear_3531_44271"
            x1="0.477912"
            y1="35.8169"
            x2="170.701"
            y2="35.8169"
            gradientUnits="userSpaceOnUse"
          >
            <stop stop-color="#ED265D" />
            <stop offset="1" stop-color="#4353FF" />
          </linearGradient>
          <linearGradient
            id="paint9_linear_3531_44271"
            x1="0.478688"
            y1="35.8169"
            x2="170.702"
            y2="35.8169"
            gradientUnits="userSpaceOnUse"
          >
            <stop stop-color="#ED265D" />
            <stop offset="1" stop-color="#4353FF" />
          </linearGradient>
          <linearGradient
            id="paint10_linear_3531_44271"
            x1="0.479044"
            y1="35.8169"
            x2="170.703"
            y2="35.8169"
            gradientUnits="userSpaceOnUse"
          >
            <stop stop-color="#ED265D" />
            <stop offset="1" stop-color="#4353FF" />
          </linearGradient>
          <linearGradient
            id="paint11_linear_3531_44271"
            x1="0.479035"
            y1="35.8169"
            x2="170.703"
            y2="35.8169"
            gradientUnits="userSpaceOnUse"
          >
            <stop stop-color="#ED265D" />
            <stop offset="1" stop-color="#4353FF" />
          </linearGradient>
          <linearGradient
            id="paint12_linear_3531_44271"
            x1="0.479085"
            y1="35.8171"
            x2="170.702"
            y2="35.8171"
            gradientUnits="userSpaceOnUse"
          >
            <stop stop-color="#ED265D" />
            <stop offset="1" stop-color="#4353FF" />
          </linearGradient>
          <linearGradient
            id="paint13_linear_3531_44271"
            x1="0.478721"
            y1="35.8171"
            x2="170.702"
            y2="35.8171"
            gradientUnits="userSpaceOnUse"
          >
            <stop stop-color="#ED265D" />
            <stop offset="1" stop-color="#4353FF" />
          </linearGradient>
          <linearGradient
            id="paint14_linear_3531_44271"
            x1="0.47791"
            y1="50.0164"
            x2="170.701"
            y2="50.0164"
            gradientUnits="userSpaceOnUse"
          >
            <stop stop-color="#ED265D" />
            <stop offset="1" stop-color="#4353FF" />
          </linearGradient>
          <linearGradient
            id="paint15_linear_3531_44271"
            x1="0.478315"
            y1="34.1633"
            x2="170.702"
            y2="34.1633"
            gradientUnits="userSpaceOnUse"
          >
            <stop stop-color="#ED265D" />
            <stop offset="1" stop-color="#4353FF" />
          </linearGradient>
          <linearGradient
            id="paint16_linear_3531_44271"
            x1="0.479121"
            y1="34.0005"
            x2="170.702"
            y2="34.0005"
            gradientUnits="userSpaceOnUse"
          >
            <stop stop-color="#ED265D" />
            <stop offset="1" stop-color="#4353FF" />
          </linearGradient>
          <linearGradient
            id="paint17_linear_3531_44271"
            x1="0.479083"
            y1="34.0005"
            x2="170.702"
            y2="34.0005"
            gradientUnits="userSpaceOnUse"
          >
            <stop stop-color="#ED265D" />
            <stop offset="1" stop-color="#4353FF" />
          </linearGradient>
          <linearGradient
            id="paint18_linear_3531_44271"
            x1="0.478338"
            y1="34.0005"
            x2="170.702"
            y2="34.0005"
            gradientUnits="userSpaceOnUse"
          >
            <stop stop-color="#ED265D" />
            <stop offset="1" stop-color="#4353FF" />
          </linearGradient>
          <linearGradient
            id="paint19_linear_3531_44271"
            x1="0.478347"
            y1="33.9797"
            x2="170.702"
            y2="33.9797"
            gradientUnits="userSpaceOnUse"
          >
            <stop stop-color="#ED265D" />
            <stop offset="1" stop-color="#4353FF" />
          </linearGradient>
        </defs>
</svg>


