<svg width="66" height="48" viewBox="0 0 66 48" fill="none" xmlns="http://www.w3.org/2000/svg">
<path fill-rule="evenodd" clip-rule="evenodd" d="M20.5514 8.83002C18.2204 12.3023 17.4266 16.5349 17.4266 19.4105H14.8311C14.8311 16.1348 15.715 11.3316 18.4175 7.30587C21.1675 3.20934 25.7541 0.000244141 32.9069 0.000244141C40.0593 0.000244141 44.6596 3.20867 47.4285 7.30193C50.1504 11.3256 51.0591 16.1275 51.0755 19.4036L48.48 19.4175C48.4656 16.5422 47.6501 12.3082 45.2999 8.83396C42.9968 5.42924 39.1771 2.67753 32.9069 2.67753C26.6372 2.67753 22.8348 5.42857 20.5514 8.83002Z" fill="#ED265D"/>
<path fill-rule="evenodd" clip-rule="evenodd" d="M1.29795 11.4739C2.01468 11.4739 2.5957 12.0732 2.5957 12.8125L2.5957 38.8204C2.5957 39.5597 2.01468 40.159 1.29795 40.159C0.581217 40.159 0.00019121 39.5597 0.000191178 38.8204L0.000190076 12.8125C0.000190045 12.0732 0.581215 11.4739 1.29795 11.4739Z" fill="#ED265D"/>
<path fill-rule="evenodd" clip-rule="evenodd" d="M33.0001 11.4739C33.7168 11.4739 34.2979 12.0732 34.2979 12.8125L34.2979 38.8204C34.2979 39.5597 33.7168 40.159 33.0001 40.159C32.2834 40.159 31.7023 39.5597 31.7023 38.8204L31.7023 12.8125C31.7023 12.0732 32.2834 11.4739 33.0001 11.4739Z" fill="#ED265D"/>
<path fill-rule="evenodd" clip-rule="evenodd" d="M64.7022 11.4739C65.419 11.4739 66 12.0732 66 12.8125L66 38.8204C66 39.5597 65.419 40.159 64.7022 40.159C63.9855 40.159 63.4045 39.5597 63.4045 38.8204L63.4045 12.8125C63.4045 12.0732 63.9855 11.4739 64.7022 11.4739Z" fill="#ED265D"/>
<path fill-rule="evenodd" clip-rule="evenodd" d="M6.11728 16.8289C6.83401 16.8289 7.41504 17.4282 7.41504 18.1675L7.41504 34.9961C7.41504 35.7354 6.83401 36.3348 6.11728 36.3348C5.40055 36.3348 4.81953 35.7354 4.81953 34.9961L4.81953 18.1675C4.81953 17.4282 5.40055 16.8289 6.11728 16.8289Z" fill="#ED265D"/>
<path fill-rule="evenodd" clip-rule="evenodd" d="M27.0675 15.491C27.7842 15.491 28.3652 16.0903 28.3652 16.8296L28.3652 33.6582C28.3652 34.3975 27.7842 34.9969 27.0675 34.9969C26.3507 34.9969 25.7697 34.3975 25.7697 33.6582L25.7697 16.8296C25.7697 16.0903 26.3507 15.491 27.0675 15.491Z" fill="#ED265D"/>
<path fill-rule="evenodd" clip-rule="evenodd" d="M38.7472 15.491C39.4639 15.491 40.0449 16.0903 40.0449 16.8296L40.0449 33.6582C40.0449 34.3975 39.4639 34.9969 38.7472 34.9969C38.0304 34.9969 37.4494 34.3975 37.4494 33.6582L37.4494 16.8296C37.4494 16.0903 38.0304 15.491 38.7472 15.491Z" fill="#ED265D"/>
<path fill-rule="evenodd" clip-rule="evenodd" d="M59.8819 15.491C60.5987 15.491 61.1797 16.0903 61.1797 16.8296L61.1797 33.6582C61.1797 34.3975 60.5987 34.9969 59.8819 34.9969C59.1652 34.9969 58.5842 34.3975 58.5842 33.6582L58.5842 16.8296C58.5842 16.0903 59.1652 15.491 59.8819 15.491Z" fill="#ED265D"/>
<path fill-rule="evenodd" clip-rule="evenodd" d="M10.9376 19.8889C11.6543 19.8889 12.2354 20.4882 12.2354 21.2276L12.2354 30.4068C12.2354 31.1461 11.6543 31.7454 10.9376 31.7454C10.2209 31.7454 9.63984 31.1461 9.63984 30.4068L9.63984 21.2276C9.63984 20.4882 10.2209 19.8889 10.9376 19.8889Z" fill="#ED265D"/>
<path fill-rule="evenodd" clip-rule="evenodd" d="M21.6905 19.8889C22.4073 19.8889 22.9883 20.4882 22.9883 21.2276L22.9883 30.4068C22.9883 31.1461 22.4073 31.7454 21.6905 31.7454C20.9738 31.7454 20.3928 31.1461 20.3928 30.4068L20.3928 21.2276C20.3928 20.4882 20.9738 19.8889 21.6905 19.8889Z" fill="#ED265D"/>
<path fill-rule="evenodd" clip-rule="evenodd" d="M44.1231 19.8889C44.8399 19.8889 45.4209 20.4882 45.4209 21.2276L45.4209 30.4068C45.4209 31.1461 44.8399 31.7454 44.1231 31.7454C43.4064 31.7454 42.8254 31.1461 42.8254 30.4068L42.8254 21.2276C42.8254 20.4882 43.4064 19.8889 44.1231 19.8889Z" fill="#ED265D"/>
<path fill-rule="evenodd" clip-rule="evenodd" d="M55.0616 19.8889C55.7783 19.8889 56.3594 20.4882 56.3594 21.2276L56.3594 30.4068C56.3594 31.1461 55.7784 31.7454 55.0616 31.7454C54.3449 31.7454 53.7639 31.1461 53.7639 30.4068L53.7639 21.2276C53.7639 20.4882 54.3449 19.8889 55.0616 19.8889Z" fill="#ED265D"/>
<path fill-rule="evenodd" clip-rule="evenodd" d="M16.129 22.1829C16.8457 22.1829 17.4268 22.7822 17.4268 23.5215L17.4268 28.1111C17.4268 28.8504 16.8457 29.4498 16.129 29.4498C15.4123 29.4498 14.8312 28.8504 14.8312 28.1111L14.8312 23.5215C14.8312 22.7822 15.4123 22.1829 16.129 22.1829Z" fill="#ED265D"/>
<path fill-rule="evenodd" clip-rule="evenodd" d="M49.6847 22.1829C50.4014 22.1829 50.9824 22.7822 50.9824 23.5215L50.9824 28.1111C50.9824 28.8504 50.4014 29.4498 49.6847 29.4498C48.9679 29.4498 48.3869 28.8504 48.3869 28.1111L48.3869 23.5215C48.3869 22.7822 48.9679 22.1829 49.6847 22.1829Z" fill="#ED265D"/>
<path fill-rule="evenodd" clip-rule="evenodd" d="M19.473 42.0435C16.5851 38.7901 15.1094 34.8228 15.1094 32.032H17.7049C17.7049 34.022 18.8432 37.3694 21.3873 40.2355C23.8857 43.0501 27.675 45.3228 32.9072 45.3228C38.1568 45.3228 41.9452 43.1311 44.4339 40.3712C46.9634 37.5662 48.1095 34.2235 48.1095 32.032H50.705C50.705 35.0038 49.237 38.9758 46.3344 42.1947C43.3911 45.4587 38.9295 48.0001 32.9072 48.0001C26.8674 48.0001 22.4067 45.3484 19.473 42.0435Z" fill="#ED265D"/>
</svg>
